<?xml version="1.0" encoding="iso-8859-1"?>
<!-- Generator: Adobe Illustrator 19.0.0, SVG Export Plug-In . SVG Version: 6.00 Build 0)  -->
<svg version="1.1" id="Layer_1" xmlns="http://www.w3.org/2000/svg" xmlns:xlink="http://www.w3.org/1999/xlink" x="0px" y="0px"
	 viewBox="0 0 512 512" style="enable-background:new 0 0 512 512;" xml:space="preserve">
<g>
	<g>
		<g>
			<path d="M346.307,320.987c-6.224,7.509-15.494,7.509-21.718,0c-13.285-16.026-35.618-16.026-48.903,0
				c-3.111,3.753-2.591,9.318,1.162,12.43c3.753,3.111,9.318,2.591,12.43-1.162c6.224-7.509,15.494-7.509,21.718,0
				c13.285,16.026,35.618,16.026,48.903,0c6.224-7.509,15.494-7.509,21.718,0c3.111,3.753,8.676,4.274,12.43,1.162
				c3.753-3.111,4.274-8.676,1.162-12.43C381.925,304.961,359.592,304.961,346.307,320.987z"/>
			<path d="M346.307,373.952c-6.224,7.509-15.494,7.509-21.718,0c-13.285-16.026-35.618-16.026-48.903,0
				c-3.111,3.753-2.591,9.318,1.162,12.43c3.753,3.111,9.318,2.591,12.43-1.162c6.224-7.509,15.494-7.509,21.718,0
				c13.285,16.026,35.618,16.026,48.903,0c6.224-7.509,15.494-7.509,21.718,0c3.111,3.753,8.676,4.274,12.43,1.162
				c3.753-3.111,4.274-8.676,1.162-12.43C381.925,357.927,359.592,357.927,346.307,373.952z"/>
			<path d="M426.218,61.793H85.782c-13.246,0-23.985,10.743-23.985,23.993v340.427c0,13.251,10.739,23.993,23.985,23.993h340.436
				c13.253,0,23.993-10.741,23.993-23.993V85.786C450.211,72.534,439.471,61.793,426.218,61.793z M432.556,426.214
				c0,3.502-2.836,6.338-6.338,6.338H85.782c-3.494,0-6.329-2.837-6.329-6.338V85.786c0-3.501,2.836-6.338,6.329-6.338h340.436
				c3.502,0,6.338,2.836,6.338,6.338V426.214z"/>
			<path d="M512,150.069c0-13.958-6.532-26.852-17.423-35.134C505.468,106.3,512,93.406,512,79.448
				c0-21.31-15.204-39.464-35.914-43.375C472.015,15.204,453.862,0,432.552,0c-13.958,0-26.852,6.532-35.134,17.423
				C388.783,6.532,375.889,0,361.931,0c-13.958,0-26.852,6.532-35.134,17.423C318.162,6.532,305.268,0,291.31,0
				c-13.958,0-26.852,6.532-35.134,17.423C247.541,6.532,234.648,0,220.69,0s-26.852,6.532-35.134,17.423
				C176.921,6.532,164.027,0,150.069,0c-13.958,0-26.852,6.532-35.134,17.423C106.3,6.532,93.406,0,79.448,0
				c-21.31,0-39.464,15.204-43.375,35.914C15.204,39.984,0,58.138,0,79.448c0,13.958,6.532,26.852,17.423,35.134
				C6.532,123.217,0,136.111,0,150.069s6.532,26.852,17.423,35.134C6.532,193.838,0,206.732,0,220.69
				c0,13.958,6.532,26.852,17.423,35.134C6.532,264.459,0,277.352,0,291.31c0,13.958,6.532,26.852,17.423,35.134
				C6.532,335.079,0,347.973,0,361.931s6.532,26.852,17.423,35.134C6.532,405.7,0,418.594,0,432.552
				c0,21.31,15.204,39.464,35.914,43.375C39.986,496.79,58.142,512,79.448,512c13.958,0,26.852-6.532,35.134-17.423
				C123.217,505.468,136.111,512,150.069,512c13.958,0,26.852-6.532,35.134-17.423C193.838,505.468,206.732,512,220.69,512
				s26.852-6.532,35.134-17.423C264.459,505.468,277.352,512,291.31,512c13.958,0,26.852-6.532,35.134-17.423
				C335.079,505.468,347.973,512,361.931,512c13.958,0,26.852-6.532,35.134-17.423C405.7,505.468,418.594,512,432.552,512
				c21.306,0,39.463-15.21,43.375-35.913C496.796,472.015,512,453.862,512,432.552c0-13.958-6.532-26.852-17.423-35.134
				C505.468,388.783,512,375.889,512,361.931s-6.532-26.852-17.423-35.134C505.468,318.162,512,305.268,512,291.31
				c0-13.958-6.532-26.852-17.423-35.134C505.468,247.541,512,234.648,512,220.69c0-13.958-6.532-26.852-17.423-35.134
				C505.468,176.921,512,164.027,512,150.069z M483.878,128.979c6.557,4.986,10.467,12.705,10.467,21.09s-3.91,16.104-10.454,21.08
				c-9.489,7.225-9.489,21.218-0.012,28.451c6.557,4.986,10.467,12.705,10.467,21.09c0,8.385-3.91,16.104-10.454,21.08
				c-9.488,7.241-9.488,21.219-0.012,28.451c6.557,4.986,10.467,12.705,10.467,21.09c0,8.385-3.91,16.104-10.454,21.08
				c-9.488,7.241-9.488,21.219-0.012,28.451c6.557,4.986,10.467,12.705,10.467,21.09s-3.91,16.104-10.454,21.08
				c-9.488,7.241-9.488,21.219-0.012,28.451c6.557,4.986,10.467,12.705,10.467,21.09c0,12.784-9.128,23.684-21.536,26.027
				c-7.256,1.354-12.876,6.975-14.234,14.249c-2.34,12.383-13.243,21.517-26.023,21.517c-8.385,0-16.104-3.91-21.08-10.454
				c-7.226-9.491-21.234-9.491-28.457-0.004c-4.98,6.549-12.698,10.459-21.083,10.459c-8.385,0-16.104-3.91-21.08-10.454
				c-7.226-9.491-21.234-9.491-28.457-0.004c-4.98,6.549-12.698,10.459-21.084,10.459c-8.385,0-16.104-3.91-21.08-10.454
				c-7.226-9.491-21.234-9.491-28.457-0.004c-4.98,6.549-12.698,10.459-21.084,10.459s-16.104-3.91-21.08-10.454
				c-7.226-9.491-21.234-9.491-28.457-0.004c-4.98,6.549-12.698,10.459-21.084,10.459c-8.385,0-16.104-3.91-21.08-10.454
				c-7.226-9.491-21.234-9.491-28.457-0.004c-4.98,6.549-12.698,10.459-21.084,10.459c-12.78,0-23.683-9.133-26.027-21.537
				c-1.354-7.255-6.974-12.875-14.249-14.233c-12.388-2.34-21.517-13.239-21.517-26.023c0-8.385,3.91-16.104,10.454-21.08
				c9.488-7.241,9.488-21.219,0.012-28.451c-6.557-4.986-10.467-12.705-10.467-21.09s3.91-16.104,10.454-21.08
				c9.488-7.241,9.488-21.219,0.012-28.451c-6.557-4.986-10.467-12.705-10.467-21.09c0-8.385,3.91-16.104,10.454-21.08
				c9.488-7.241,9.488-21.219,0.012-28.451c-6.557-4.986-10.467-12.705-10.467-21.09c0-8.385,3.91-16.104,10.454-21.08
				c9.489-7.242,9.489-21.235,0.004-28.457c-6.549-4.98-10.459-12.698-10.459-21.083s3.91-16.104,10.454-21.08
				c9.489-7.242,9.489-21.235,0.004-28.457c-6.549-4.98-10.459-12.698-10.459-21.083c0-12.784,9.128-23.684,21.536-26.027
				c7.256-1.354,12.876-6.975,14.234-14.249c2.34-12.388,13.239-21.517,26.023-21.517c8.385,0,16.104,3.91,21.08,10.454
				c7.241,9.488,21.219,9.488,28.451,0.012c4.986-6.557,12.705-10.467,21.09-10.467c8.385,0,16.104,3.91,21.08,10.454
				c7.241,9.488,21.219,9.488,28.451,0.012c4.986-6.557,12.705-10.467,21.09-10.467s16.104,3.91,21.08,10.454
				c7.241,9.488,21.219,9.488,28.451,0.012c4.986-6.557,12.705-10.467,21.09-10.467c8.385,0,16.104,3.91,21.08,10.454
				c7.241,9.488,21.219,9.488,28.451,0.012c4.986-6.557,12.705-10.467,21.09-10.467c8.385,0,16.104,3.91,21.08,10.454
				c7.241,9.488,21.219,9.488,28.451,0.012c4.986-6.557,12.704-10.467,21.09-10.467c12.784,0,23.683,9.128,26.027,21.536
				c1.354,7.256,6.974,12.876,14.249,14.234c12.388,2.34,21.517,13.239,21.517,26.023c0,8.385-3.91,16.104-10.454,21.08
				C474.401,107.754,474.401,121.746,483.878,128.979z"/>
			<path d="M246.9,321.319c-2.242-21.866-19.24-38.837-41.081-38.837c-11.554,0-22.178,4.118-29.764,11.341
				c-7.263-7.268-17.324-11.341-28.771-11.341c-21.841,0-38.839,16.971-41.081,38.837c-0.044,0.28-0.086,0.597-0.123,0.95
				c-0.394,3.71-0.077,8.487,1.372,14.188c3.02,11.938,10.05,22.749,19.91,31.066l43.523,36.484c3.281,2.75,8.062,2.75,11.343-0.001
				l43.493-36.467c9.878-8.332,16.909-19.141,19.932-31.08c1.447-5.701,1.764-10.479,1.37-14.189
				C246.986,321.917,246.944,321.6,246.9,321.319z M228.539,332.12c-2.09,8.255-7.066,15.905-14.181,21.906l-37.803,31.695
				l-37.831-31.712c-7.096-5.985-12.07-13.635-14.159-21.892c-0.928-3.651-1.106-6.325-0.929-7.982c0.006-0.057,0.109-0.8,0.109-0.8
				c1.27-13.326,11.091-23.197,23.539-23.197c9.707,0,16.997,4.54,20.586,12.468c3.131,6.916,12.953,6.916,16.084,0
				c3.437-7.591,11.782-12.468,21.866-12.468c12.448,0,22.269,9.871,23.539,23.197l0.144,0.957
				C229.643,325.794,229.465,328.471,228.539,332.12z"/>
		</g>
	</g>
</g>
<g>
</g>
<g>
</g>
<g>
</g>
<g>
</g>
<g>
</g>
<g>
</g>
<g>
</g>
<g>
</g>
<g>
</g>
<g>
</g>
<g>
</g>
<g>
</g>
<g>
</g>
<g>
</g>
<g>
</g>
</svg>
